{
  "accessors": [
    {
      "bufferView": 2,
      "componentType": 5126,
      "count": 4771,
      "max": [
        2.0005671977996826,
        0.11229360103607178,
        0.536235511302948
      ],
      "min": [
        -2.012022018432617,
        -0.19011139869689941,
        -0.4322146475315094
      ],
      "type": "VEC3"
    },
    {
      "bufferView": 2,
      "byteOffset": 57252,
      "componentType": 5126,
      "count": 4771,
      "max": [
        0.9678874015808105,
        0.9999973773956299,
        0.9998995065689087
      ],
      "min": [
        -0.9678874015808105,
        -0.9999973773956299,
        -0.9998999834060669
      ],
      "type": "VEC3"
    },
    {
      "bufferView": 1,
      "componentType": 5126,
      "count": 4771,
      "max": [
        0.9818999767303467,
        0.9800000190734863
      ],
      "min": [
        0.009100000374019146,
        0.0067999958992004395
      ],
      "type": "VEC2"
    },
    {
      "bufferView": 1,
      "byteOffset": 38168,
      "componentType": 5126,
      "count": 4771,
      "max": [
        1.401298464324817e-45,
        0.0
      ],
      "min": [
        1.401298464324817e-45,
        0.0
      ],
      "type": "VEC2"
    },
    {
      "bufferView": 1,
      "byteOffset": 76336,
      "componentType": 5126,
      "count": 4771,
      "max": [
        0.9818999767303467,
        0.9800000190734863
      ],
      "min": [
        0.009100000374019146,
        0.0067999958992004395
      ],
      "type": "VEC2"
    },
    {
      "bufferView": 0,
      "componentType": 5125,
      "count": 17100,
      "type": "SCALAR"
    }
  ],
  "asset": {
    "extras": {
      "author": "sxnneh (https://sketchfab.com/Sxnneh)",
      "license": "SKETCHFAB Standard (https://sketchfab.com/licenses)",
      "source": "https://sketchfab.com/3d-models/angel-wings-a575b36467d840be84d8f91d5074d7d4",
      "title": "Angel wings"
    },
    "generator": "Sketchfab-16.64.0",
    "version": "2.0"
  },
  "bufferViews": [
    {
      "buffer": 0,
      "byteLength": 68400,
      "name": "floatBufferViews",
      "target": 34963
    },
    {
      "buffer": 0,
      "byteLength": 114504,
      "byteOffset": 68400,
      "byteStride": 8,
      "name": "floatBufferViews",
      "target": 34962
    },
    {
      "buffer": 0,
      "byteLength": 114504,
      "byteOffset": 182904,
      "byteStride": 12,
      "name": "floatBufferViews",
      "target": 34962
    }
  ],
  "buffers": [
    {
      "byteLength": 297408,
      "uri": "scene.bin"
    }
  ],
  "extensionsUsed": [
    "KHR_materials_specular"
  ],
  "images": [
    {
      "uri": "textures/head_diff_000_a_whi.001_baseColor.png"
    },
    {
      "uri": "textures/head_diff_000_a_whi.001_specularf0.png"
    }
  ],
  "materials": [
    {
      "alphaMode": "BLEND",
      "doubleSided": true,
      "extensions": {
        "KHR_materials_specular": {
          "specularColorFactor": [
            1.0,
            1.0,
            1.0
          ],
          "specularFactor": 1.0,
          "specularTexture": {
            "index": 1
          }
        }
      },
      "name": "head_diff_000_a_whi.001",
      "pbrMetallicRoughness": {
        "baseColorTexture": {
          "index": 0
        },
        "metallicFactor": 0.0
      }
    }
  ],
  "meshes": [
    {
      "name": "Object_0",
      "primitives": [
        {
          "attributes": {
            "NORMAL": 1,
            "POSITION": 0,
            "TEXCOORD_0": 2,
            "TEXCOORD_1": 3,
            "TEXCOORD_2": 4
          },
          "indices": 5,
          "material": 0,
          "mode": 4
        }
      ]
    }
  ],
  "nodes": [
    {
      "children": [
        1
      ],
      "matrix": [
        1.0,
        0.0,
        0.0,
        0.0,
        0.0,
        2.220446049250313e-16,
        -1.0,
        0.0,
        0.0,
        1.0,
        2.220446049250313e-16,
        0.0,
        0.0,
        0.0,
        0.0,
        1.0
      ],
      "name": "Sketchfab_model"
    },
    {
      "children": [
        2
      ],
      "name": "root"
    },
    {
      "children": [
        3
      ],
      "matrix": [
        1.0,
        0.0,
        0.0,
        0.0,
        0.0,
        2.220446049250313e-16,
        1.0,
        0.0,
        0.0,
        -1.0,
        2.220446049250313e-16,
        0.0,
        0.0,
        0.0,
        0.0,
        1.0
      ],
      "name": "GLTF_SceneRootNode"
    },
    {
      "children": [
        4
      ],
      "matrix": [
        1.0,
        0.0,
        -0.0,
        0.0,
        0.0,
        0.0,
        -1.0,
        0.0,
        0.0,
        1.0,
        0.0,
        0.0,
        0.005846381653100252,
        1.3072060346603394,
        -0.23348620533943176,
        1.0
      ],
      "name": "SKEL_ROOT.002_9"
    },
    {
      "mesh": 0,
      "name": "Object_4"
    }
  ],
  "samplers": [
    {
      "magFilter": 9729,
      "minFilter": 9987,
      "wrapS": 10497,
      "wrapT": 10497
    }
  ],
  "scene": 0,
  "scenes": [
    {
      "name": "Sketchfab_Scene",
      "nodes": [
        0
      ]
    }
  ],
  "textures": [
    {
      "sampler": 0,
      "source": 0
    },
    {
      "sampler": 0,
      "source": 1
    }
  ]
}
