{
  "accessors": [
    {
      "bufferView": 2,
      "componentType": 5126,
      "count": 21062,
      "max": [
        10.341853141784668,
        11.650572776794434,
        2.9290921688079834
      ],
      "min": [
        -10.341853141784668,
        -1.56941556930542,
        -1.6725900173187256
      ],
      "type": "VEC3"
    },
    {
      "bufferView": 2,
      "byteOffset": 252744,
      "componentType": 5126,
      "count": 21062,
      "max": [
        0.9999300837516785,
        0.9997572898864746,
        0.9999935030937195
      ],
      "min": [
        -0.9999300837516785,
        -0.9994252920150757,
        -0.9999998211860657
      ],
      "type": "VEC3"
    },
    {
      "bufferView": 3,
      "componentType": 5126,
      "count": 21062,
      "max": [
        0.9999679923057556,
        0.999924898147583,
        0.9999996423721313,
        1.0
      ],
      "min": [
        -0.9999576807022095,
        -0.9999683499336243,
        -0.9998747110366821,
        -1.0
      ],
      "type": "VEC4"
    },
    {
      "bufferView": 1,
      "componentType": 5126,
      "count": 21062,
      "max": [
        0.998046875,
        0.9937570691108704
      ],
      "min": [
        0.0019531238358467817,
        0.0019531238358467817
      ],
      "type": "VEC2"
    },
    {
      "bufferView": 0,
      "componentType": 5125,
      "count": 103680,
      "type": "SCALAR"
    }
  ],
  "asset": {
    "extras": {
      "author": "xXsnakemanXx (https://sketchfab.com/xXsnakemanXx)",
      "license": "CC-BY-4.0 (http://creativecommons.org/licenses/by/4.0/)",
      "source": "https://sketchfab.com/3d-models/wings-8bdd06a5d47a4efda8ed73c8d6e61899",
      "title": "Wings"
    },
    "generator": "Sketchfab-12.64.0",
    "version": "2.0"
  },
  "bufferViews": [
    {
      "buffer": 0,
      "byteLength": 414720,
      "name": "floatBufferViews",
      "target": 34963
    },
    {
      "buffer": 0,
      "byteLength": 168496,
      "byteOffset": 414720,
      "byteStride": 8,
      "name": "floatBufferViews",
      "target": 34962
    },
    {
      "buffer": 0,
      "byteLength": 505488,
      "byteOffset": 583216,
      "byteStride": 12,
      "name": "floatBufferViews",
      "target": 34962
    },
    {
      "buffer": 0,
      "byteLength": 336992,
      "byteOffset": 1088704,
      "byteStride": 16,
      "name": "floatBufferViews",
      "target": 34962
    }
  ],
  "buffers": [
    {
      "byteLength": 1425696,
      "uri": "scene.bin"
    }
  ],
  "images": [
    {
      "uri": "textures/wing_low_baseColor.png"
    },
    {
      "uri": "textures/wing_low_normal.png"
    }
  ],
  "materials": [
    {
      "doubleSided": true,
      "name": "wing_low",
      "normalTexture": {
        "index": 1
      },
      "pbrMetallicRoughness": {
        "baseColorTexture": {
          "index": 0
        },
        "metallicFactor": 0.0
      }
    }
  ],
  "meshes": [
    {
      "name": "wing_low_wing_low_0",
      "primitives": [
        {
          "attributes": {
            "NORMAL": 1,
            "POSITION": 0,
            "TANGENT": 2,
            "TEXCOORD_0": 3
          },
          "indices": 4,
          "material": 0,
          "mode": 4
        }
      ]
    }
  ],
  "nodes": [
    {
      "children": [
        1
      ],
      "matrix": [
        1.0,
        0.0,
        0.0,
        0.0,
        0.0,
        2.220446049250313e-16,
        -1.0,
        0.0,
        0.0,
        1.0,
        2.220446049250313e-16,
        0.0,
        0.0,
        0.0,
        0.0,
        1.0
      ],
      "name": "Sketchfab_model"
    },
    {
      "children": [
        2
      ],
      "matrix": [
        1.0,
        0.0,
        0.0,
        0.0,
        0.0,
        0.0,
        1.0,
        0.0,
        0.0,
        -1.0,
        0.0,
        0.0,
        0.0,
        0.0,
        0.0,
        1.0
      ],
      "name": "8f2db3d0b40b4113996235a1f0df4dac.fbx"
    },
    {
      "children": [
        3
      ],
      "name": "RootNode"
    },
    {
      "children": [
        4
      ],
      "name": "wing_low"
    },
    {
      "mesh": 0,
      "name": "wing_low_wing_low_0"
    }
  ],
  "samplers": [
    {
      "magFilter": 9729,
      "minFilter": 9987,
      "wrapS": 10497,
      "wrapT": 10497
    }
  ],
  "scene": 0,
  "scenes": [
    {
      "name": "Sketchfab_Scene",
      "nodes": [
        0
      ]
    }
  ],
  "textures": [
    {
      "sampler": 0,
      "source": 0
    },
    {
      "sampler": 0,
      "source": 1
    }
  ]
}
